<svg width="660" height="660" viewBox="0 0 660 660" fill="none" xmlns="http://www.w3.org/2000/svg">
<rect width="660" height="660" rx="10" fill="#6B6B6B"/>
<rect x="60" y="20" width="140" height="140" rx="10" transform="rotate(0.0316822 60 20)" fill="white"/>
<rect x="60.0781" y="500" width="140" height="140" rx="10" transform="rotate(0.0316822 60.0781 500)" fill="white"/>
<rect x="60.0781" y="180" width="140" height="140" rx="10" transform="rotate(0.0316822 60.0781 180)" fill="#14A44D"/>
<rect x="60.0781" y="340" width="140" height="140" rx="5" transform="rotate(0.0316822 60.0781 340)" fill="#14A44D"/>
<rect x="260" y="20" width="140" height="140" rx="10" transform="rotate(0.0316822 260 20)" fill="#14A44D"/>
<rect x="460" y="20" width="140" height="140" rx="10" transform="rotate(0.0316822 460 20)" fill="white"/>
<rect x="260.078" y="180" width="140" height="140" rx="10" transform="rotate(0.0316822 260.078 180)" fill="white"/>
<rect x="260.078" y="340" width="140" height="140" rx="10" transform="rotate(0.0316822 260.078 340)" fill="white"/>
<rect x="260.078" y="500" width="140" height="140" rx="10" transform="rotate(0.0316822 260.078 500)" fill="#14A44D"/>
<rect x="460.078" y="180" width="140" height="140" rx="10" transform="rotate(0.0316822 460.078 180)" fill="white"/>
<rect x="460.078" y="340" width="140" height="140" rx="10" transform="rotate(0.0316822 460.078 340)" fill="white"/>
<rect x="460.078" y="500" width="140" height="140" rx="10" transform="rotate(0.0316822 460.078 500)" fill="white"/>
</svg>
